solid stl_item0
  facet normal 0.9978 0.06625 0
    outer loop
      vertex 82.803 -35.839 10
      vertex 82.919 -37.586 10
      vertex 82.919 -37.586 0
    endloop
  endfacet
  facet normal 0.9978 0.06625 0
    outer loop
      vertex 82.803 -35.839 10
      vertex 82.919 -37.586 0
      vertex 82.803 -35.839 0
    endloop
  endfacet
  facet normal 0.49138 0.87094 0
    outer loop
      vertex 89.214 -42.576 10
      vertex 89.214 -42.576 0
      vertex 88.404 -42.119 0
    endloop
  endfacet
  facet normal 0.49138 0.87094 0
    outer loop
      vertex 89.214 -42.576 10
      vertex 88.404 -42.119 0
      vertex 88.404 -42.119 10
    endloop
  endfacet
  facet normal 0 0 -1
    outer loop
      vertex 87.656 -37.953 0
      vertex 87.497 -39.697 0
      vertex 86.567 -37.399 0
    endloop
  endfacet
  facet normal 0 0 -1
    outer loop
      vertex 85.25 -38.552 0
      vertex 86.567 -37.399 0
      vertex 87.497 -39.697 0
    endloop
  endfacet
  facet normal 0 0 -1
    outer loop
      vertex 87.08 -41.308 0
      vertex 84.193 -39.837 0
      vertex 87.497 -39.697 0
    endloop
  endfacet
  facet normal 0 0 -1
    outer loop
      vertex 82.758 -39.243 0
      vertex 80.52 -36.807 0
      vertex 82.919 -37.586 0
    endloop
  endfacet
  facet normal 0 0 -1
    outer loop
      vertex 59.405 -39.837 0
      vertex 60.84 -39.243 0
      vertex 63.526 -45.452 0
    endloop
  endfacet
  facet normal 0 0 -1
    outer loop
      vertex 63.526 -45.452 0
      vertex 60.84 -39.243 0
      vertex 63.921 -38.241 0
    endloop
  endfacet
  facet normal 0 0 -1
    outer loop
      vertex 65.431 -37.879 0
      vertex 66.161 -45.452 0
      vertex 63.921 -38.241 0
    endloop
  endfacet
  facet normal 0 0 1
    outer loop
      vertex 52.573 -44.023 10
      vertex 55.194 -42.119 10
      vertex 51.908 -42.498 10
    endloop
  endfacet
  facet normal 0 0 1
    outer loop
      vertex 51.908 -42.498 10
      vertex 53.95 -41.015 10
      vertex 52.468 -40.083 10
    endloop
  endfacet
  facet normal 0 0 1
    outer loop
      vertex 51.908 -42.498 10
      vertex 52.468 -40.083 10
      vertex 51.48 -40.8 10
    endloop
  endfacet
  facet normal 0 0 -1
    outer loop
      vertex 88.404 -42.119 0
      vertex 81.67 -45.049 0
      vertex 87.08 -41.308 0
    endloop
  endfacet
  facet normal 0 0 -1
    outer loop
      vertex 85.25 -38.552 0
      vertex 87.497 -39.697 0
      vertex 84.193 -39.837 0
    endloop
  endfacet
  facet normal 0 0 -1
    outer loop
      vertex 89.214 -42.576 0
      vertex 81.67 -47.684 0
      vertex 88.404 -42.119 0
    endloop
  endfacet
  facet normal 0 0 -1
    outer loop
      vertex 59.405 -39.837 0
      vertex 56.519 -41.308 0
      vertex 56.101 -39.697 0
    endloop
  endfacet
  facet normal 0 0 -1
    outer loop
      vertex 55.942 -37.953 0
      vertex 57.031 -37.399 0
      vertex 56.101 -39.697 0
    endloop
  endfacet
  facet normal 0 0 -1
    outer loop
      vertex 57.031 -37.399 0
      vertex 58.349 -38.552 0
      vertex 56.101 -39.697 0
    endloop
  endfacet
  facet normal 0 0 -1
    outer loop
      vertex 59.405 -39.837 0
      vertex 56.101 -39.697 0
      vertex 58.349 -38.552 0
    endloop
  endfacet
  facet normal 0 0 -1
    outer loop
      vertex 84.193 -39.837 0
      vertex 87.08 -41.308 0
      vertex 81.67 -45.049 0
    endloop
  endfacet
  facet normal 0 0 -1
    outer loop
      vertex 82.758 -39.243 0
      vertex 84.193 -39.837 0
      vertex 81.67 -45.049 0
    endloop
  endfacet
  facet normal 0 0 -1
    outer loop
      vertex 59.405 -39.837 0
      vertex 63.526 -45.452 0
      vertex 56.519 -41.308 0
    endloop
  endfacet
  facet normal 0 0 -1
    outer loop
      vertex 56.519 -41.308 0
      vertex 63.526 -45.452 0
      vertex 55.194 -42.119 0
    endloop
  endfacet
  facet normal 0 0 1
    outer loop
      vertex 53.95 -41.015 10
      vertex 51.908 -42.498 10
      vertex 55.194 -42.119 10
    endloop
  endfacet
  facet normal 0 0 1
    outer loop
      vertex 52.573 -44.023 10
      vertex 63.526 -48.086 10
      vertex 55.194 -42.119 10
    endloop
  endfacet
  facet normal 0 0 1
    outer loop
      vertex 56.519 -41.308 10
      vertex 55.194 -42.119 10
      vertex 63.526 -45.452 10
    endloop
  endfacet
  facet normal 0 0 -1
    outer loop
      vertex 53.95 -41.015 0
      vertex 55.194 -42.119 0
      vertex 51.908 -42.498 0
    endloop
  endfacet
  facet normal 0 0 -1
    outer loop
      vertex 51.48 -40.8 0
      vertex 52.468 -40.083 0
      vertex 51.908 -42.498 0
    endloop
  endfacet
  facet normal 0 0 -1
    outer loop
      vertex 53.95 -41.015 0
      vertex 51.908 -42.498 0
      vertex 52.468 -40.083 0
    endloop
  endfacet
  facet normal 0 0 1
    outer loop
      vertex 49.99 -44.136 10
      vertex 49.102 -47.322 10
      vertex 51.393 -45.031 10
    endloop
  endfacet
  facet normal 0 0 -1
    outer loop
      vertex 81.641 -35.462 0
      vertex 82.919 -37.586 0
      vertex 80.52 -36.807 0
    endloop
  endfacet
  facet normal 0 0 -1
    outer loop
      vertex 82.803 -35.839 0
      vertex 82.919 -37.586 0
      vertex 81.641 -35.462 0
    endloop
  endfacet
  facet normal 0 0 -1
    outer loop
      vertex 52.573 -44.023 0
      vertex 51.908 -42.498 0
      vertex 55.194 -42.119 0
    endloop
  endfacet
  facet normal 0 0 -1
    outer loop
      vertex 82.758 -39.243 0
      vertex 81.67 -45.049 0
      vertex 79.677 -38.241 0
    endloop
  endfacet
  facet normal 0 0 -1
    outer loop
      vertex 80.52 -36.807 0
      vertex 82.758 -39.243 0
      vertex 79.677 -38.241 0
    endloop
  endfacet
  facet normal 0 0 -1
    outer loop
      vertex 88.404 -42.119 0
      vertex 81.67 -47.684 0
      vertex 81.67 -45.049 0
    endloop
  endfacet
  facet normal 0 0 -1
    outer loop
      vertex 79.036 -45.049 0
      vertex 79.677 -38.241 0
      vertex 81.67 -45.049 0
    endloop
  endfacet
  facet normal 0 0 1
    outer loop
      vertex 88.404 -42.119 10
      vertex 81.67 -47.684 10
      vertex 89.214 -42.576 10
    endloop
  endfacet
  facet normal 0 0 1
    outer loop
      vertex 87.08 -41.308 10
      vertex 81.67 -45.049 10
      vertex 88.404 -42.119 10
    endloop
  endfacet
  facet normal 0 0 1
    outer loop
      vertex 84.193 -39.837 10
      vertex 81.67 -45.049 10
      vertex 87.08 -41.308 10
    endloop
  endfacet
  facet normal 0 0 1
    outer loop
      vertex 82.758 -39.243 10
      vertex 81.67 -45.049 10
      vertex 84.193 -39.837 10
    endloop
  endfacet
  facet normal 0 0 -1
    outer loop
      vertex 51.393 -45.031 0
      vertex 52.573 -44.023 0
      vertex 63.526 -48.086 0
    endloop
  endfacet
  facet normal 0 0 1
    outer loop
      vertex 82.758 -39.243 10
      vertex 82.919 -37.586 10
      vertex 80.52 -36.807 10
    endloop
  endfacet
  facet normal 0 0 1
    outer loop
      vertex 79.677 -38.241 10
      vertex 81.67 -45.049 10
      vertex 82.758 -39.243 10
    endloop
  endfacet
  facet normal 0 0 1
    outer loop
      vertex 81.67 -45.049 10
      vertex 81.67 -47.684 10
      vertex 88.404 -42.119 10
    endloop
  endfacet
  facet normal 0 0 -1
    outer loop
      vertex 46.189 -51.124 0
      vertex 45.085 -49.879 0
      vertex 46.568 -47.838 0
    endloop
  endfacet
  facet normal 0 0 -1
    outer loop
      vertex 48.094 -48.503 0
      vertex 46.189 -51.124 0
      vertex 46.568 -47.838 0
    endloop
  endfacet
  facet normal -0.63526 -0.77229 0
    outer loop
      vertex 43.907 -55.335 0
      vertex 43.907 -55.335 10
      vertex 42.622 -54.278 10
    endloop
  endfacet
  facet normal -0.63526 -0.77229 0
    outer loop
      vertex 43.907 -55.335 0
      vertex 42.622 -54.278 10
      vertex 42.622 -54.278 0
    endloop
  endfacet
  facet normal 0.86207 0.50678 0
    outer loop
      vertex 63.921 -38.241 10
      vertex 63.921 -38.241 0
      vertex 63.078 -36.807 0
    endloop
  endfacet
  facet normal 0 0 1
    outer loop
      vertex 44.871 -47.409 10
      vertex 45.085 -49.879 10
      vertex 46.568 -47.838 10
    endloop
  endfacet
  facet normal 0 0 1
    outer loop
      vertex 45.085 -49.879 10
      vertex 46.189 -51.124 10
      vertex 46.568 -47.838 10
    endloop
  endfacet
  facet normal 0 0 1
    outer loop
      vertex 44.152 -48.397 10
      vertex 45.085 -49.879 10
      vertex 44.871 -47.409 10
    endloop
  endfacet
  facet normal 0 0 1
    outer loop
      vertex 48.094 -48.503 10
      vertex 46.568 -47.838 10
      vertex 46.189 -51.124 10
    endloop
  endfacet
  facet normal 0 0 -1
    outer loop
      vertex 49.99 -44.136 0
      vertex 49.102 -47.322 0
      vertex 48.206 -45.92 0
    endloop
  endfacet
  facet normal 0 0 -1
    outer loop
      vertex 47.517 -44.311 0
      vertex 48.381 -43.447 0
      vertex 48.206 -45.92 0
    endloop
  endfacet
  facet normal 0 0 -1
    outer loop
      vertex 49.99 -44.136 0
      vertex 48.206 -45.92 0
      vertex 48.381 -43.447 0
    endloop
  endfacet
  facet normal 1 0 0
    outer loop
      vertex 49.024 -57.336 10
      vertex 49.024 -59.97 10
      vertex 49.024 -57.336 0
    endloop
  endfacet
  facet normal 0 0 -1
    outer loop
      vertex 49.99 -44.136 0
      vertex 51.393 -45.031 0
      vertex 49.102 -47.322 0
    endloop
  endfacet
  facet normal 0 0 1
    outer loop
      vertex 47.517 -44.311 10
      vertex 48.206 -45.92 10
      vertex 48.381 -43.447 10
    endloop
  endfacet
  facet normal 0 0 1
    outer loop
      vertex 49.99 -44.136 10
      vertex 48.381 -43.447 10
      vertex 48.206 -45.92 10
    endloop
  endfacet
  facet normal 0 0 1
    outer loop
      vertex 49.102 -47.322 10
      vertex 49.99 -44.136 10
      vertex 48.206 -45.92 10
    endloop
  endfacet
  facet normal 0 0 -1
    outer loop
      vertex 76.472 -34.319 0
      vertex 77.679 -34.511 0
      vertex 75.575 -35.823 0
    endloop
  endfacet
  facet normal 0 0 -1
    outer loop
      vertex 77.679 -34.511 0
      vertex 78.067 -36.218 0
      vertex 75.575 -35.823 0
    endloop
  endfacet
  facet normal 0 0 -1
    outer loop
      vertex 74.967 -37.372 0
      vertex 75.575 -35.823 0
      vertex 78.067 -36.218 0
    endloop
  endfacet
  facet normal 0 0 1
    outer loop
      vertex 79.677 -38.241 10
      vertex 82.758 -39.243 10
      vertex 80.52 -36.807 10
    endloop
  endfacet
  facet normal -0.1571 0.98758 0
    outer loop
      vertex 67.126 -34.319 0
      vertex 65.919 -34.511 0
      vertex 65.919 -34.511 10
    endloop
  endfacet
  facet normal -0.1571 0.98758 0
    outer loop
      vertex 67.126 -34.319 0
      vertex 65.919 -34.511 10
      vertex 67.126 -34.319 10
    endloop
  endfacet
  facet normal 0 0 -1
    outer loop
      vertex 46.189 -51.124 0
      vertex 48.094 -48.503 0
      vertex 51.658 -57.336 0
    endloop
  endfacet
  facet normal 0 0 -1
    outer loop
      vertex 78.167 -37.879 0
      vertex 79.677 -38.241 0
      vertex 79.036 -45.049 0
    endloop
  endfacet
  facet normal 0 0 -1
    outer loop
      vertex 49.102 -47.322 0
      vertex 51.393 -45.031 0
      vertex 51.658 -57.336 0
    endloop
  endfacet
  facet normal 0 0 -1
    outer loop
      vertex 48.094 -48.503 0
      vertex 49.102 -47.322 0
      vertex 51.658 -57.336 0
    endloop
  endfacet
  facet normal 1 0.00025 0
    outer loop
      vertex 89.22 -66.39 10
      vertex 89.22 -66.39 0
      vertex 89.214 -42.576 0
    endloop
  endfacet
  facet normal 0 0 1
    outer loop
      vertex 89.22 -66.39 10
      vertex 89.214 -42.576 10
      vertex 81.67 -47.684 10
    endloop
  endfacet
  facet normal 0.00036 -1 0
    outer loop
      vertex 60.39 -64.709 0
      vertex 82.9 -64.701 0
      vertex 82.9 -64.701 10
    endloop
  endfacet
  facet normal 0 0 -1
    outer loop
      vertex 51.658 -59.97 0
      vertex 51.658 -57.336 0
      vertex 60.39 -64.709 0
    endloop
  endfacet
  facet normal 0 -1 0
    outer loop
      vertex 49.024 -57.336 10
      vertex 49.024 -57.336 0
      vertex 51.658 -57.336 0
    endloop
  endfacet
  facet normal 0 0 -1
    outer loop
      vertex 78.067 -36.218 0
      vertex 78.167 -37.879 0
      vertex 74.967 -37.372 0
    endloop
  endfacet
  facet normal 0 0 -1
    outer loop
      vertex 78.167 -37.879 0
      vertex 79.036 -45.049 0
      vertex 74.967 -37.372 0
    endloop
  endfacet
  facet normal 0 0 -1
    outer loop
      vertex 74.967 -37.372 0
      vertex 79.036 -45.049 0
      vertex 73.418 -37.25 0
    endloop
  endfacet
  facet normal -0.85245 0.5228 0
    outer loop
      vertex 45.377 -52.448 0
      vertex 45.377 -52.448 10
      vertex 46.189 -51.124 10
    endloop
  endfacet
  facet normal 0 0 -1
    outer loop
      vertex 43.313 -56.769 0
      vertex 42.311 -59.85 0
      vertex 41.657 -56.608 0
    endloop
  endfacet
  facet normal 0 0 -1
    outer loop
      vertex 40.877 -59.007 0
      vertex 39.532 -57.886 0
      vertex 41.657 -56.608 0
    endloop
  endfacet
  facet normal -0.23313 0.97245 0
    outer loop
      vertex 65.431 -37.879 10
      vertex 65.431 -37.879 0
      vertex 63.921 -38.241 0
    endloop
  endfacet
  facet normal -0.23313 0.97245 0
    outer loop
      vertex 65.431 -37.879 10
      vertex 63.921 -38.241 0
      vertex 63.921 -38.241 10
    endloop
  endfacet
  facet normal 0 0 1
    outer loop
      vertex 78.167 -37.879 10
      vertex 78.067 -36.218 10
      vertex 74.967 -37.372 10
    endloop
  endfacet
  facet normal 0 0 1
    outer loop
      vertex 75.575 -35.823 10
      vertex 74.967 -37.372 10
      vertex 78.067 -36.218 10
    endloop
  endfacet
  facet normal 0 0 1
    outer loop
      vertex 78.067 -36.218 10
      vertex 77.679 -34.511 10
      vertex 75.575 -35.823 10
    endloop
  endfacet
  facet normal 0 0 1
    outer loop
      vertex 76.472 -34.319 10
      vertex 75.575 -35.823 10
      vertex 77.679 -34.511 10
    endloop
  endfacet
  facet normal 0.2513 0.96791 0
    outer loop
      vertex 45.377 -52.448 10
      vertex 45.377 -52.448 0
      vertex 43.767 -52.03 0
    endloop
  endfacet
  facet normal 0.2513 0.96791 0
    outer loop
      vertex 45.377 -52.448 10
      vertex 43.767 -52.03 0
      vertex 43.767 -52.03 10
    endloop
  endfacet
  facet normal -0.52205 0.85292 0
    outer loop
      vertex 55.194 -42.119 0
      vertex 55.194 -42.119 10
      vertex 56.519 -41.308 10
    endloop
  endfacet
  facet normal 0.09028 0.99592 0
    outer loop
      vertex 43.767 -52.03 0
      vertex 42.024 -51.872 0
      vertex 42.024 -51.872 10
    endloop
  endfacet
  facet normal 0.09028 0.99592 0
    outer loop
      vertex 43.767 -52.03 0
      vertex 42.024 -51.872 10
      vertex 43.767 -52.03 10
    endloop
  endfacet
  facet normal -0.99587 -0.09079 0
    outer loop
      vertex 55.942 -37.953 10
      vertex 55.942 -37.953 0
      vertex 56.101 -39.697 0
    endloop
  endfacet
  facet normal -0.99587 -0.09079 0
    outer loop
      vertex 55.942 -37.953 10
      vertex 56.101 -39.697 0
      vertex 56.101 -39.697 10
    endloop
  endfacet
  facet normal 0 0 -1
    outer loop
      vertex 43.907 -55.335 0
      vertex 49.024 -57.336 0
      vertex 43.313 -56.769 0
    endloop
  endfacet
  facet normal -0.8908 0.4544 0
    outer loop
      vertex 42.024 -51.872 0
      vertex 41.469 -52.96 0
      vertex 41.469 -52.96 10
    endloop
  endfacet
  facet normal -0.8908 0.4544 0
    outer loop
      vertex 42.024 -51.872 0
      vertex 41.469 -52.96 10
      vertex 42.024 -51.872 10
    endloop
  endfacet
  facet normal 0 0 1
    outer loop
      vertex 78.167 -37.879 10
      vertex 74.967 -37.372 10
      vertex 79.036 -45.049 10
    endloop
  endfacet
  facet normal 0 0 1
    outer loop
      vertex 79.677 -38.241 10
      vertex 78.167 -37.879 10
      vertex 79.036 -45.049 10
    endloop
  endfacet
  facet normal 0 0 1
    outer loop
      vertex 81.67 -45.049 10
      vertex 79.677 -38.241 10
      vertex 79.036 -45.049 10
    endloop
  endfacet
  facet normal -0.84626 -0.53277 0
    outer loop
      vertex 44.152 -48.397 0
      vertex 45.085 -49.879 0
      vertex 45.085 -49.879 10
    endloop
  endfacet
  facet normal 0 0 1
    outer loop
      vertex 74.967 -37.372 10
      vertex 73.418 -37.25 10
      vertex 79.036 -45.049 10
    endloop
  endfacet
  facet normal -0.85245 0.5228 0
    outer loop
      vertex 46.189 -51.124 0
      vertex 45.377 -52.448 0
      vertex 46.189 -51.124 10
    endloop
  endfacet
  facet normal 0 0 -1
    outer loop
      vertex 73.06 -35.626 0
      vertex 73.418 -37.25 0
      vertex 70.538 -35.626 0
    endloop
  endfacet
  facet normal 0 0 -1
    outer loop
      vertex 70.538 -35.626 0
      vertex 71.188 -34 0
      vertex 73.06 -35.626 0
    endloop
  endfacet
  facet normal 0 0 -1
    outer loop
      vertex 72.41 -34 0
      vertex 73.06 -35.626 0
      vertex 71.188 -34 0
    endloop
  endfacet
  facet normal 0 0 1
    outer loop
      vertex 79.036 -45.049 10
      vertex 73.418 -37.25 10
      vertex 66.161 -45.452 10
    endloop
  endfacet
  facet normal -0.7482 -0.66347 0
    outer loop
      vertex 45.085 -49.879 0
      vertex 46.189 -51.124 0
      vertex 46.189 -51.124 10
    endloop
  endfacet
  facet normal -0.7482 -0.66347 0
    outer loop
      vertex 45.085 -49.879 0
      vertex 46.189 -51.124 10
      vertex 45.085 -49.879 10
    endloop
  endfacet
  facet normal 0 0 -1
    outer loop
      vertex 43.767 -52.03 0
      vertex 42.622 -54.278 0
      vertex 42.024 -51.872 0
    endloop
  endfacet
  facet normal 0 0 -1
    outer loop
      vertex 45.377 -52.448 0
      vertex 46.189 -51.124 0
      vertex 49.024 -57.336 0
    endloop
  endfacet
  facet normal 0 0 -1
    outer loop
      vertex 51.658 -57.336 0
      vertex 49.024 -57.336 0
      vertex 46.189 -51.124 0
    endloop
  endfacet
  facet normal 0 0 -1
    outer loop
      vertex 49.024 -57.336 0
      vertex 43.907 -55.335 0
      vertex 45.377 -52.448 0
    endloop
  endfacet
  facet normal 0 0 -1
    outer loop
      vertex 42.622 -54.278 0
      vertex 45.377 -52.448 0
      vertex 43.907 -55.335 0
    endloop
  endfacet
  facet normal 0 0 -1
    outer loop
      vertex 43.767 -52.03 0
      vertex 45.377 -52.448 0
      vertex 42.622 -54.278 0
    endloop
  endfacet
  facet normal 0 0 -1
    outer loop
      vertex 41.469 -52.96 0
      vertex 42.024 -51.872 0
      vertex 42.622 -54.278 0
    endloop
  endfacet
  facet normal -0.96795 -0.25115 0
    outer loop
      vertex 56.101 -39.697 0
      vertex 56.519 -41.308 0
      vertex 56.519 -41.308 10
    endloop
  endfacet
  facet normal -0.96795 -0.25115 0
    outer loop
      vertex 56.101 -39.697 0
      vertex 56.519 -41.308 10
      vertex 56.101 -39.697 10
    endloop
  endfacet
  facet normal 0 0 1
    outer loop
      vertex 70.179 -37.25 10
      vertex 73.418 -37.25 10
      vertex 70.538 -35.626 10
    endloop
  endfacet
  facet normal 0 0 1
    outer loop
      vertex 71.188 -34 10
      vertex 70.538 -35.626 10
      vertex 73.06 -35.626 10
    endloop
  endfacet
  facet normal 0 0 1
    outer loop
      vertex 71.188 -34 10
      vertex 73.06 -35.626 10
      vertex 72.41 -34 10
    endloop
  endfacet
  facet normal 0 0 -1
    outer loop
      vertex 70.179 -37.25 0
      vertex 70.538 -35.626 0
      vertex 73.418 -37.25 0
    endloop
  endfacet
  facet normal 0 0 -1
    outer loop
      vertex 79.036 -45.049 0
      vertex 66.161 -45.452 0
      vertex 73.418 -37.25 0
    endloop
  endfacet
  facet normal 0 0 -1
    outer loop
      vertex 70.179 -37.25 0
      vertex 73.418 -37.25 0
      vertex 66.161 -45.452 0
    endloop
  endfacet
  facet normal -0.98758 0.1571 0
    outer loop
      vertex 38.581 -61.849 0
      vertex 38.389 -63.056 0
      vertex 38.389 -63.056 10
    endloop
  endfacet
  facet normal -0.98758 0.1571 0
    outer loop
      vertex 38.581 -61.849 0
      vertex 38.389 -63.056 10
      vertex 38.581 -61.849 10
    endloop
  endfacet
  facet normal 0 0 -1
    outer loop
      vertex 44.152 -48.397 0
      vertex 44.871 -47.409 0
      vertex 45.085 -49.879 0
    endloop
  endfacet
  facet normal 0 0 -1
    outer loop
      vertex 44.871 -47.409 0
      vertex 46.568 -47.838 0
      vertex 45.085 -49.879 0
    endloop
  endfacet
  facet normal 0 0 -1
    outer loop
      vertex 66.161 -48.086 0
      vertex 66.161 -45.452 0
      vertex 79.036 -47.684 0
    endloop
  endfacet
  facet normal -0.51181 -0.8591 0
    outer loop
      vertex 39.893 -63.952 0
      vertex 39.893 -63.952 10
      vertex 38.389 -63.056 10
    endloop
  endfacet
  facet normal -0.51181 -0.8591 0
    outer loop
      vertex 39.893 -63.952 0
      vertex 38.389 -63.056 10
      vertex 38.389 -63.056 0
    endloop
  endfacet
  facet normal 0 0 1
    outer loop
      vertex 66.161 -45.452 10
      vertex 70.179 -37.25 10
      vertex 68.631 -37.372 10
    endloop
  endfacet
  facet normal 0 0 1
    outer loop
      vertex 70.179 -37.25 10
      vertex 66.161 -45.452 10
      vertex 73.418 -37.25 10
    endloop
  endfacet
  facet normal 0 0 1
    outer loop
      vertex 73.06 -35.626 10
      vertex 70.538 -35.626 10
      vertex 73.418 -37.25 10
    endloop
  endfacet
  facet normal 0 0 -1
    outer loop
      vertex 38.389 -63.056 0
      vertex 38.581 -61.849 0
      vertex 39.893 -63.952 0
    endloop
  endfacet
  facet normal 0 0 -1
    outer loop
      vertex 38.581 -61.849 0
      vertex 40.288 -61.46 0
      vertex 39.893 -63.952 0
    endloop
  endfacet
  facet normal 0.65842 0.75265 0
    outer loop
      vertex 58.349 -38.552 0
      vertex 57.031 -37.399 0
      vertex 57.031 -37.399 10
    endloop
  endfacet
  facet normal -0.36537 -0.93086 0
    outer loop
      vertex 41.442 -64.56 10
      vertex 39.893 -63.952 10
      vertex 39.893 -63.952 0
    endloop
  endfacet
  facet normal -0.36537 -0.93086 0
    outer loop
      vertex 41.442 -64.56 10
      vertex 39.893 -63.952 0
      vertex 41.442 -64.56 0
    endloop
  endfacet
  facet normal 0 0 1
    outer loop
      vertex 82.9 -64.701 10
      vertex 79.036 -47.684 10
      vertex 66.161 -48.086 10
    endloop
  endfacet
  facet normal 0 0 -1
    outer loop
      vertex 39.909 -56.725 0
      vertex 41.657 -56.608 0
      vertex 39.532 -57.886 0
    endloop
  endfacet
  facet normal -0.45342 0.8913 0
    outer loop
      vertex 57.031 -37.399 0
      vertex 55.942 -37.953 0
      vertex 55.942 -37.953 10
    endloop
  endfacet
  facet normal -0.45342 0.8913 0
    outer loop
      vertex 57.031 -37.399 0
      vertex 55.942 -37.953 10
      vertex 57.031 -37.399 10
    endloop
  endfacet
  facet normal -0.52205 0.85292 0
    outer loop
      vertex 56.519 -41.308 10
      vertex 56.519 -41.308 0
      vertex 55.194 -42.119 0
    endloop
  endfacet
  facet normal 0 0 -1
    outer loop
      vertex 40.877 -59.007 0
      vertex 41.657 -56.608 0
      vertex 42.311 -59.85 0
    endloop
  endfacet
  facet normal 0 0 -1
    outer loop
      vertex 49.024 -59.97 0
      vertex 42.311 -59.85 0
      vertex 43.313 -56.769 0
    endloop
  endfacet
  facet normal 0 0 -1
    outer loop
      vertex 49.024 -57.336 0
      vertex 49.024 -59.97 0
      vertex 43.313 -56.769 0
    endloop
  endfacet
  facet normal 1 0 0
    outer loop
      vertex 49.024 -59.97 10
      vertex 49.024 -59.97 0
      vertex 49.024 -57.336 0
    endloop
  endfacet
  facet normal 0 0 1
    outer loop
      vertex 68.631 -37.372 10
      vertex 68.023 -35.823 10
      vertex 65.531 -36.218 10
    endloop
  endfacet
  facet normal 0 0 1
    outer loop
      vertex 65.919 -34.511 10
      vertex 65.531 -36.218 10
      vertex 68.023 -35.823 10
    endloop
  endfacet
  facet normal 0 0 1
    outer loop
      vertex 67.126 -34.319 10
      vertex 65.919 -34.511 10
      vertex 68.023 -35.823 10
    endloop
  endfacet
  facet normal 0.66377 0.74794 0
    outer loop
      vertex 55.194 -42.119 10
      vertex 55.194 -42.119 0
      vertex 53.95 -41.015 0
    endloop
  endfacet
  facet normal 0.66377 0.74794 0
    outer loop
      vertex 55.194 -42.119 10
      vertex 53.95 -41.015 0
      vertex 53.95 -41.015 10
    endloop
  endfacet
  facet normal -0.95111 0.30885 0
    outer loop
      vertex 39.909 -56.725 0
      vertex 39.532 -57.886 0
      vertex 39.532 -57.886 10
    endloop
  endfacet
  facet normal 0 0 -1
    outer loop
      vertex 60.392 -70.868 0
      vertex 54.106 -78.959 0
      vertex 51.658 -59.97 0
    endloop
  endfacet
  facet normal 0 0 -1
    outer loop
      vertex 60.39 -64.709 0
      vertex 60.392 -70.868 0
      vertex 51.658 -59.97 0
    endloop
  endfacet
  facet normal 0.53236 0.84652 0
    outer loop
      vertex 53.95 -41.015 0
      vertex 52.468 -40.083 0
      vertex 52.468 -40.083 10
    endloop
  endfacet
  facet normal 0.53236 0.84652 0
    outer loop
      vertex 53.95 -41.015 0
      vertex 52.468 -40.083 10
      vertex 53.95 -41.015 10
    endloop
  endfacet
  facet normal -0.64024 -0.76817 0
    outer loop
      vertex 40.877 -59.007 0
      vertex 40.877 -59.007 10
      vertex 39.532 -57.886 10
    endloop
  endfacet
  facet normal -0.64024 -0.76817 0
    outer loop
      vertex 40.877 -59.007 0
      vertex 39.532 -57.886 10
      vertex 39.532 -57.886 0
    endloop
  endfacet
  facet normal 0 0 1
    outer loop
      vertex 79.036 -47.684 10
      vertex 82.9 -64.701 10
      vertex 81.67 -47.684 10
    endloop
  endfacet
  facet normal 0 0 1
    outer loop
      vertex 79.036 -47.684 10
      vertex 79.036 -45.049 10
      vertex 66.161 -45.452 10
    endloop
  endfacet
  facet normal 0 0 1
    outer loop
      vertex 66.161 -45.452 10
      vertex 66.161 -48.086 10
      vertex 79.036 -47.684 10
    endloop
  endfacet
  facet normal -0.58734 0.80934 0
    outer loop
      vertex 52.468 -40.083 0
      vertex 51.48 -40.8 0
      vertex 51.48 -40.8 10
    endloop
  endfacet
  facet normal -0.58734 0.80934 0
    outer loop
      vertex 52.468 -40.083 0
      vertex 51.48 -40.8 10
      vertex 52.468 -40.083 10
    endloop
  endfacet
  facet normal -0.77229 0.63526 0
    outer loop
      vertex 85.25 -38.552 0
      vertex 84.193 -39.837 0
      vertex 84.193 -39.837 10
    endloop
  endfacet
  facet normal 0 0 1
    outer loop
      vertex 48.094 -48.503 10
      vertex 51.658 -57.336 10
      vertex 49.102 -47.322 10
    endloop
  endfacet
  facet normal -0.50678 -0.86207 0
    outer loop
      vertex 42.311 -59.85 10
      vertex 40.877 -59.007 10
      vertex 40.877 -59.007 0
    endloop
  endfacet
  facet normal -0.50678 -0.86207 0
    outer loop
      vertex 42.311 -59.85 10
      vertex 40.877 -59.007 0
      vertex 42.311 -59.85 0
    endloop
  endfacet
  facet normal 0.38247 0.92397 0
    outer loop
      vertex 84.193 -39.837 10
      vertex 84.193 -39.837 0
      vertex 82.758 -39.243 0
    endloop
  endfacet
  facet normal 0.38247 0.92397 0
    outer loop
      vertex 84.193 -39.837 10
      vertex 82.758 -39.243 0
      vertex 82.758 -39.243 10
    endloop
  endfacet
  facet normal 0 0 1
    outer loop
      vertex 66.161 -48.086 10
      vertex 60.39 -64.709 10
      vertex 82.9 -64.701 10
    endloop
  endfacet
  facet normal -0.96967 -0.24442 0
    outer loop
      vertex 51.48 -40.8 0
      vertex 51.908 -42.498 0
      vertex 51.908 -42.498 10
    endloop
  endfacet
  facet normal -0.96967 -0.24442 0
    outer loop
      vertex 51.48 -40.8 0
      vertex 51.908 -42.498 10
      vertex 51.48 -40.8 10
    endloop
  endfacet
  facet normal 1 0.00025 0
    outer loop
      vertex 89.214 -42.576 10
      vertex 89.22 -66.39 10
      vertex 89.214 -42.576 0
    endloop
  endfacet
  facet normal 0 1 0
    outer loop
      vertex 51.658 -59.97 0
      vertex 49.024 -59.97 0
      vertex 49.024 -59.97 10
    endloop
  endfacet
  facet normal 0 0 1
    outer loop
      vertex 51.393 -45.031 10
      vertex 49.102 -47.322 10
      vertex 51.658 -57.336 10
    endloop
  endfacet
  facet normal 0 0 1
    outer loop
      vertex 49.024 -57.336 10
      vertex 51.658 -57.336 10
      vertex 46.189 -51.124 10
    endloop
  endfacet
  facet normal -0.91664 -0.39971 0
    outer loop
      vertex 51.908 -42.498 0
      vertex 52.573 -44.023 0
      vertex 52.573 -44.023 10
    endloop
  endfacet
  facet normal -0.91664 -0.39971 0
    outer loop
      vertex 51.908 -42.498 0
      vertex 52.573 -44.023 10
      vertex 51.908 -42.498 10
    endloop
  endfacet
  facet normal -0.97248 0.23298 0
    outer loop
      vertex 42.311 -59.85 0
      vertex 41.949 -61.361 0
      vertex 41.949 -61.361 10
    endloop
  endfacet
  facet normal -0.97248 0.23298 0
    outer loop
      vertex 42.311 -59.85 0
      vertex 41.949 -61.361 10
      vertex 42.311 -59.85 10
    endloop
  endfacet
  facet normal -0.64952 0.76035 0
    outer loop
      vertex 52.573 -44.023 10
      vertex 52.573 -44.023 0
      vertex 51.393 -45.031 0
    endloop
  endfacet
  facet normal -0.64952 0.76035 0
    outer loop
      vertex 52.573 -44.023 10
      vertex 51.393 -45.031 0
      vertex 51.393 -45.031 10
    endloop
  endfacet
  facet normal 0.3086 0.95119 0
    outer loop
      vertex 82.803 -35.839 0
      vertex 81.641 -35.462 0
      vertex 81.641 -35.462 10
    endloop
  endfacet
  facet normal 0 0 1
    outer loop
      vertex 51.658 -59.97 10
      vertex 60.39 -64.709 10
      vertex 51.658 -57.336 10
    endloop
  endfacet
  facet normal -0.22219 0.975 0
    outer loop
      vertex 40.288 -61.46 10
      vertex 40.288 -61.46 0
      vertex 38.581 -61.849 0
    endloop
  endfacet
  facet normal -0.22219 0.975 0
    outer loop
      vertex 40.288 -61.46 10
      vertex 38.581 -61.849 0
      vertex 38.581 -61.849 10
    endloop
  endfacet
  facet normal 0.53781 0.84307 0
    outer loop
      vertex 51.393 -45.031 10
      vertex 51.393 -45.031 0
      vertex 49.99 -44.136 0
    endloop
  endfacet
  facet normal 0.53781 0.84307 0
    outer loop
      vertex 51.393 -45.031 10
      vertex 49.99 -44.136 0
      vertex 49.99 -44.136 10
    endloop
  endfacet
  facet normal 0 0 1
    outer loop
      vertex 60.392 -70.868 10
      vertex 60.39 -64.709 10
      vertex 51.658 -59.97 10
    endloop
  endfacet
  facet normal 0 0 1
    outer loop
      vertex 49.024 -59.97 10
      vertex 54.106 -78.959 10
      vertex 51.658 -59.97 10
    endloop
  endfacet
  facet normal -0.76817 0.64024 0
    outer loop
      vertex 81.641 -35.462 0
      vertex 80.52 -36.807 0
      vertex 80.52 -36.807 10
    endloop
  endfacet
  facet normal -0.76817 0.64024 0
    outer loop
      vertex 81.641 -35.462 0
      vertex 80.52 -36.807 10
      vertex 81.641 -35.462 10
    endloop
  endfacet
  facet normal -0.0595 0.99823 0
    outer loop
      vertex 41.949 -61.361 10
      vertex 41.949 -61.361 0
      vertex 40.288 -61.46 0
    endloop
  endfacet
  facet normal -0.0595 0.99823 0
    outer loop
      vertex 41.949 -61.361 10
      vertex 40.288 -61.46 0
      vertex 40.288 -61.46 10
    endloop
  endfacet
  facet normal -0.84626 -0.53277 0
    outer loop
      vertex 44.152 -48.397 10
      vertex 44.152 -48.397 0
      vertex 45.085 -49.879 10
    endloop
  endfacet
  facet normal -0.86207 0.50678 0
    outer loop
      vertex 80.52 -36.807 0
      vertex 79.677 -38.241 0
      vertex 79.677 -38.241 10
    endloop
  endfacet
  facet normal -0.86207 0.50678 0
    outer loop
      vertex 80.52 -36.807 0
      vertex 79.677 -38.241 10
      vertex 80.52 -36.807 10
    endloop
  endfacet
  facet normal -0.7509 -0.66042 0
    outer loop
      vertex 41.442 -64.56 10
      vertex 41.442 -64.56 0
      vertex 54.106 -78.959 10
    endloop
  endfacet
  facet normal -0.7509 -0.66042 0
    outer loop
      vertex 54.106 -78.959 0
      vertex 54.106 -78.959 10
      vertex 41.442 -64.56 0
    endloop
  endfacet
  facet normal 0 0 1
    outer loop
      vertex 39.532 -57.886 10
      vertex 40.877 -59.007 10
      vertex 41.657 -56.608 10
    endloop
  endfacet
  facet normal 0 0 1
    outer loop
      vertex 39.909 -56.725 10
      vertex 39.532 -57.886 10
      vertex 41.657 -56.608 10
    endloop
  endfacet
  facet normal 0.39364 0.91926 0
    outer loop
      vertex 48.381 -43.447 10
      vertex 49.99 -44.136 10
      vertex 48.381 -43.447 0
    endloop
  endfacet
  facet normal 0.39364 0.91926 0
    outer loop
      vertex 49.99 -44.136 0
      vertex 48.381 -43.447 0
      vertex 49.99 -44.136 10
    endloop
  endfacet
  facet normal 0.23313 0.97245 0
    outer loop
      vertex 79.677 -38.241 10
      vertex 79.677 -38.241 0
      vertex 78.167 -37.879 0
    endloop
  endfacet
  facet normal 0.23313 0.97245 0
    outer loop
      vertex 79.677 -38.241 10
      vertex 78.167 -37.879 0
      vertex 78.167 -37.879 10
    endloop
  endfacet
  facet normal 0 0 1
    outer loop
      vertex 40.877 -59.007 10
      vertex 42.311 -59.85 10
      vertex 41.657 -56.608 10
    endloop
  endfacet
  facet normal -0.70711 0.70711 0
    outer loop
      vertex 48.381 -43.447 0
      vertex 47.517 -44.311 0
      vertex 47.517 -44.311 10
    endloop
  endfacet
  facet normal -0.70711 0.70711 0
    outer loop
      vertex 48.381 -43.447 0
      vertex 47.517 -44.311 10
      vertex 48.381 -43.447 10
    endloop
  endfacet
  facet normal 0 -1 0
    outer loop
      vertex 79.036 -45.049 0
      vertex 81.67 -45.049 0
      vertex 81.67 -45.049 10
    endloop
  endfacet
  facet normal -0.76062 0.6492 0
    outer loop
      vertex 49.102 -47.322 0
      vertex 48.094 -48.503 0
      vertex 48.094 -48.503 10
    endloop
  endfacet
  facet normal 1 0 0
    outer loop
      vertex 64.936 -73.449 10
      vertex 64.936 -76.084 10
      vertex 64.936 -76.084 0
    endloop
  endfacet
  facet normal 1 0 0
    outer loop
      vertex 64.936 -73.449 10
      vertex 64.936 -76.084 0
      vertex 64.936 -73.449 0
    endloop
  endfacet
  facet normal -1 0 0
    outer loop
      vertex 81.67 -45.049 10
      vertex 81.67 -45.049 0
      vertex 81.67 -47.684 0
    endloop
  endfacet
  facet normal -1 0 0
    outer loop
      vertex 81.67 -45.049 10
      vertex 81.67 -47.684 0
      vertex 81.67 -47.684 10
    endloop
  endfacet
  facet normal 0 0 1
    outer loop
      vertex 43.907 -55.335 10
      vertex 49.024 -57.336 10
      vertex 45.377 -52.448 10
    endloop
  endfacet
  facet normal 0.39949 0.91674 0
    outer loop
      vertex 48.094 -48.503 10
      vertex 48.094 -48.503 0
      vertex 46.568 -47.838 0
    endloop
  endfacet
  facet normal 0.39949 0.91674 0
    outer loop
      vertex 48.094 -48.503 10
      vertex 46.568 -47.838 0
      vertex 46.568 -47.838 10
    endloop
  endfacet
  facet normal 0 -1 0
    outer loop
      vertex 67.571 -73.449 0
      vertex 64.936 -73.449 10
      vertex 64.936 -73.449 0
    endloop
  endfacet
  facet normal 0 1 0
    outer loop
      vertex 79.036 -47.684 0
      vertex 79.036 -47.684 10
      vertex 81.67 -47.684 0
    endloop
  endfacet
  facet normal 0 1 0
    outer loop
      vertex 81.67 -47.684 10
      vertex 81.67 -47.684 0
      vertex 79.036 -47.684 10
    endloop
  endfacet
  facet normal 0.24509 0.9695 0
    outer loop
      vertex 46.568 -47.838 0
      vertex 44.871 -47.409 0
      vertex 44.871 -47.409 10
    endloop
  endfacet
  facet normal 0.24509 0.9695 0
    outer loop
      vertex 46.568 -47.838 0
      vertex 44.871 -47.409 10
      vertex 46.568 -47.838 10
    endloop
  endfacet
  facet normal 0 1 0
    outer loop
      vertex 67.571 -76.084 10
      vertex 64.936 -76.084 0
      vertex 64.936 -76.084 10
    endloop
  endfacet
  facet normal 0.97513 0.22165 0
    outer loop
      vertex 77.679 -34.511 0
      vertex 77.679 -34.511 10
      vertex 78.067 -36.218 10
    endloop
  endfacet
  facet normal 0.97513 0.22165 0
    outer loop
      vertex 77.679 -34.511 0
      vertex 78.067 -36.218 10
      vertex 78.067 -36.218 0
    endloop
  endfacet
  facet normal -0.80856 0.58841 0
    outer loop
      vertex 44.871 -47.409 0
      vertex 44.152 -48.397 0
      vertex 44.152 -48.397 10
    endloop
  endfacet
  facet normal -0.80856 0.58841 0
    outer loop
      vertex 44.871 -47.409 0
      vertex 44.152 -48.397 10
      vertex 44.871 -47.409 10
    endloop
  endfacet
  facet normal 0 0 1
    outer loop
      vertex 42.024 -51.872 10
      vertex 42.622 -54.278 10
      vertex 43.767 -52.03 10
    endloop
  endfacet
  facet normal 0 0 1
    outer loop
      vertex 43.767 -52.03 10
      vertex 42.622 -54.278 10
      vertex 45.377 -52.448 10
    endloop
  endfacet
  facet normal 0 0 1
    outer loop
      vertex 41.469 -52.96 10
      vertex 42.622 -54.278 10
      vertex 42.024 -51.872 10
    endloop
  endfacet
  facet normal 0 0 1
    outer loop
      vertex 43.907 -55.335 10
      vertex 45.377 -52.448 10
      vertex 42.622 -54.278 10
    endloop
  endfacet
  facet normal 0 0 1
    outer loop
      vertex 46.189 -51.124 10
      vertex 45.377 -52.448 10
      vertex 49.024 -57.336 10
    endloop
  endfacet
  facet normal 0.1571 0.98758 0
    outer loop
      vertex 77.679 -34.511 0
      vertex 76.472 -34.319 0
      vertex 76.472 -34.319 10
    endloop
  endfacet
  facet normal 0.1571 0.98758 0
    outer loop
      vertex 77.679 -34.511 0
      vertex 76.472 -34.319 10
      vertex 77.679 -34.511 10
    endloop
  endfacet
  facet normal 0 0 1
    outer loop
      vertex 81.67 -47.684 10
      vertex 82.9 -64.701 10
      vertex 89.22 -66.39 10
    endloop
  endfacet
  facet normal 0 0 1
    outer loop
      vertex 82.902 -70.861 10
      vertex 89.22 -66.39 10
      vertex 82.9 -64.701 10
    endloop
  endfacet
  facet normal -0.85885 0.51223 0
    outer loop
      vertex 76.472 -34.319 0
      vertex 75.575 -35.823 0
      vertex 75.575 -35.823 10
    endloop
  endfacet
  facet normal -0.85885 0.51223 0
    outer loop
      vertex 76.472 -34.319 0
      vertex 75.575 -35.823 10
      vertex 76.472 -34.319 10
    endloop
  endfacet
  facet normal 0 0 -1
    outer loop
      vertex 63.526 -48.086 0
      vertex 66.161 -48.086 0
      vertex 60.39 -64.709 0
    endloop
  endfacet
  facet normal 0 0 -1
    outer loop
      vertex 79.036 -47.684 0
      vertex 82.9 -64.701 0
      vertex 66.161 -48.086 0
    endloop
  endfacet
  facet normal -1 -0.00032 0
    outer loop
      vertex 82.9 -64.701 10
      vertex 82.9 -64.701 0
      vertex 82.902 -70.861 0
    endloop
  endfacet
  facet normal -1 -0.00032 0
    outer loop
      vertex 82.9 -64.701 10
      vertex 82.902 -70.861 0
      vertex 82.902 -70.861 10
    endloop
  endfacet
  facet normal -0.93086 0.36537 0
    outer loop
      vertex 75.575 -35.823 0
      vertex 74.967 -37.372 0
      vertex 74.967 -37.372 10
    endloop
  endfacet
  facet normal -0.93086 0.36537 0
    outer loop
      vertex 75.575 -35.823 0
      vertex 74.967 -37.372 10
      vertex 75.575 -35.823 10
    endloop
  endfacet
  facet normal 0 0 1
    outer loop
      vertex 89.22 -66.39 10
      vertex 82.902 -70.861 10
      vertex 76.91 -79.008 10
    endloop
  endfacet
  facet normal 0.99819 0.0601 0
    outer loop
      vertex 78.067 -36.218 10
      vertex 78.167 -37.879 10
      vertex 78.067 -36.218 0
    endloop
  endfacet
  facet normal 0 0 -1
    outer loop
      vertex 67.126 -34.319 0
      vertex 68.023 -35.823 0
      vertex 65.919 -34.511 0
    endloop
  endfacet
  facet normal 0 0 -1
    outer loop
      vertex 66.161 -45.452 0
      vertex 65.431 -37.879 0
      vertex 68.631 -37.372 0
    endloop
  endfacet
  facet normal 0 0 -1
    outer loop
      vertex 68.631 -37.372 0
      vertex 70.179 -37.25 0
      vertex 66.161 -45.452 0
    endloop
  endfacet
  facet normal 0 0 -1
    outer loop
      vertex 63.526 -45.452 0
      vertex 63.921 -38.241 0
      vertex 66.161 -45.452 0
    endloop
  endfacet
  facet normal 0 0 -1
    outer loop
      vertex 68.023 -35.823 0
      vertex 68.631 -37.372 0
      vertex 65.531 -36.218 0
    endloop
  endfacet
  facet normal 0 0 -1
    outer loop
      vertex 65.531 -36.218 0
      vertex 68.631 -37.372 0
      vertex 65.431 -37.879 0
    endloop
  endfacet
  facet normal 0.07852 0.99691 0
    outer loop
      vertex 73.418 -37.25 0
      vertex 74.967 -37.372 10
      vertex 74.967 -37.372 0
    endloop
  endfacet
  facet normal 0.71579 -0.69832 0
    outer loop
      vertex 89.22 -66.39 0
      vertex 89.22 -66.39 10
      vertex 76.91 -79.008 0
    endloop
  endfacet
  facet normal 0.71579 -0.69832 0
    outer loop
      vertex 76.91 -79.008 10
      vertex 76.91 -79.008 0
      vertex 89.22 -66.39 10
    endloop
  endfacet
  facet normal 0 0 1
    outer loop
      vertex 67.571 -76.084 10
      vertex 64.936 -76.084 10
      vertex 76.91 -79.008 10
    endloop
  endfacet
  facet normal 0 0 -1
    outer loop
      vertex 60.39 -64.709 0
      vertex 66.161 -48.086 0
      vertex 82.9 -64.701 0
    endloop
  endfacet
  facet normal 0 0 -1
    outer loop
      vertex 60.39 -64.709 0
      vertex 51.658 -57.336 0
      vertex 63.526 -48.086 0
    endloop
  endfacet
  facet normal 0 0 -1
    outer loop
      vertex 79.036 -47.684 0
      vertex 66.161 -45.452 0
      vertex 79.036 -45.049 0
    endloop
  endfacet
  facet normal 0 0 -1
    outer loop
      vertex 81.67 -47.684 0
      vertex 82.9 -64.701 0
      vertex 79.036 -47.684 0
    endloop
  endfacet
  facet normal 0 0 1
    outer loop
      vertex 64.936 -73.449 10
      vertex 67.571 -73.449 10
      vertex 60.392 -70.868 10
    endloop
  endfacet
  facet normal 0 0 -1
    outer loop
      vertex 82.902 -70.861 0
      vertex 82.9 -64.701 0
      vertex 89.22 -66.39 0
    endloop
  endfacet
  facet normal 0 0 -1
    outer loop
      vertex 82.9 -64.701 0
      vertex 81.67 -47.684 0
      vertex 89.22 -66.39 0
    endloop
  endfacet
  facet normal 0 0 -1
    outer loop
      vertex 89.214 -42.576 0
      vertex 89.22 -66.39 0
      vertex 81.67 -47.684 0
    endloop
  endfacet
  facet normal 1 0 0
    outer loop
      vertex 79.036 -45.049 10
      vertex 79.036 -47.684 10
      vertex 79.036 -47.684 0
    endloop
  endfacet
  facet normal 1 0 0
    outer loop
      vertex 79.036 -45.049 10
      vertex 79.036 -47.684 0
      vertex 79.036 -45.049 0
    endloop
  endfacet
  facet normal 0 0 1
    outer loop
      vertex 67.571 -76.084 10
      vertex 76.91 -79.008 10
      vertex 67.571 -73.449 10
    endloop
  endfacet
  facet normal 0 0 1
    outer loop
      vertex 60.392 -70.868 10
      vertex 67.571 -73.449 10
      vertex 82.902 -70.861 10
    endloop
  endfacet
  facet normal -0.00215 -1 0
    outer loop
      vertex 54.106 -78.959 10
      vertex 54.106 -78.959 0
      vertex 76.91 -79.008 10
    endloop
  endfacet
  facet normal 0 -1 0
    outer loop
      vertex 81.67 -45.049 10
      vertex 79.036 -45.049 10
      vertex 79.036 -45.049 0
    endloop
  endfacet
  facet normal 0 0 -1
    outer loop
      vertex 76.91 -79.008 0
      vertex 82.902 -70.861 0
      vertex 89.22 -66.39 0
    endloop
  endfacet
  facet normal -0.00215 -1 0
    outer loop
      vertex 76.91 -79.008 0
      vertex 76.91 -79.008 10
      vertex 54.106 -78.959 0
    endloop
  endfacet
  facet normal 0 0 1
    outer loop
      vertex 82.902 -70.861 10
      vertex 67.571 -73.449 10
      vertex 76.91 -79.008 10
    endloop
  endfacet
  facet normal 0 0 -1
    outer loop
      vertex 64.936 -73.449 0
      vertex 60.392 -70.868 0
      vertex 67.571 -73.449 0
    endloop
  endfacet
  facet normal 0 0 1
    outer loop
      vertex 66.082 -69.236 10
      vertex 78.05 -69.256 10
      vertex 78.055 -66.372 10
    endloop
  endfacet
  facet normal 0 0 1
    outer loop
      vertex 66.082 -69.236 10
      vertex 78.055 -66.372 10
      vertex 66.086 -66.351 10
    endloop
  endfacet
  facet normal 0.99819 0.0601 0
    outer loop
      vertex 78.167 -37.879 10
      vertex 78.167 -37.879 0
      vertex 78.067 -36.218 0
    endloop
  endfacet
  facet normal 0 0 1
    outer loop
      vertex 57.031 -37.399 10
      vertex 56.101 -39.697 10
      vertex 58.349 -38.552 10
    endloop
  endfacet
  facet normal 1 -0.00173 0
    outer loop
      vertex 78.055 -66.372 0
      vertex 78.055 -66.372 10
      vertex 78.05 -69.256 10
    endloop
  endfacet
  facet normal 1 -0.00173 0
    outer loop
      vertex 78.055 -66.372 0
      vertex 78.05 -69.256 10
      vertex 78.05 -69.256 0
    endloop
  endfacet
  facet normal 0.07852 0.99691 0
    outer loop
      vertex 73.418 -37.25 0
      vertex 73.418 -37.25 10
      vertex 74.967 -37.372 10
    endloop
  endfacet
  facet normal 0.00175 1 0
    outer loop
      vertex 78.055 -66.372 0
      vertex 66.086 -66.351 0
      vertex 66.086 -66.351 10
    endloop
  endfacet
  facet normal 0.00175 1 0
    outer loop
      vertex 78.055 -66.372 0
      vertex 66.086 -66.351 10
      vertex 78.055 -66.372 10
    endloop
  endfacet
  facet normal 0 0 -1
    outer loop
      vertex 41.949 -61.361 0
      vertex 49.024 -59.97 0
      vertex 41.442 -64.56 0
    endloop
  endfacet
  facet normal 0 0 -1
    outer loop
      vertex 42.311 -59.85 0
      vertex 49.024 -59.97 0
      vertex 41.949 -61.361 0
    endloop
  endfacet
  facet normal 0 0 -1
    outer loop
      vertex 41.442 -64.56 0
      vertex 39.893 -63.952 0
      vertex 41.949 -61.361 0
    endloop
  endfacet
  facet normal 0 0 -1
    outer loop
      vertex 40.288 -61.46 0
      vertex 41.949 -61.361 0
      vertex 39.893 -63.952 0
    endloop
  endfacet
  facet normal 0 0 1
    outer loop
      vertex 61.957 -35.462 10
      vertex 60.795 -35.839 10
      vertex 60.679 -37.586 10
    endloop
  endfacet
  facet normal 0 0 1
    outer loop
      vertex 60.84 -39.243 10
      vertex 63.078 -36.807 10
      vertex 60.679 -37.586 10
    endloop
  endfacet
  facet normal 0 0 1
    outer loop
      vertex 63.921 -38.241 10
      vertex 63.078 -36.807 10
      vertex 60.84 -39.243 10
    endloop
  endfacet
  facet normal 0 0 1
    outer loop
      vertex 61.957 -35.462 10
      vertex 60.679 -37.586 10
      vertex 63.078 -36.807 10
    endloop
  endfacet
  facet normal 0 0 -1
    outer loop
      vertex 67.571 -76.084 0
      vertex 67.571 -73.449 0
      vertex 76.91 -79.008 0
    endloop
  endfacet
  facet normal -0.00031 1 0
    outer loop
      vertex 82.902 -70.861 0
      vertex 60.392 -70.868 0
      vertex 60.392 -70.868 10
    endloop
  endfacet
  facet normal 0 0 -1
    outer loop
      vertex 64.936 -73.449 0
      vertex 64.936 -76.084 0
      vertex 54.106 -78.959 0
    endloop
  endfacet
  facet normal 0 0 1
    outer loop
      vertex 66.161 -45.452 10
      vertex 68.631 -37.372 10
      vertex 65.431 -37.879 10
    endloop
  endfacet
  facet normal 0 0 1
    outer loop
      vertex 65.531 -36.218 10
      vertex 65.431 -37.879 10
      vertex 68.631 -37.372 10
    endloop
  endfacet
  facet normal 0 0 -1
    outer loop
      vertex 67.571 -76.084 0
      vertex 76.91 -79.008 0
      vertex 64.936 -76.084 0
    endloop
  endfacet
  facet normal 0 0 -1
    outer loop
      vertex 54.106 -78.959 0
      vertex 64.936 -76.084 0
      vertex 76.91 -79.008 0
    endloop
  endfacet
  facet normal 0 0 -1
    outer loop
      vertex 82.902 -70.861 0
      vertex 76.91 -79.008 0
      vertex 67.571 -73.449 0
    endloop
  endfacet
  facet normal 0 0 -1
    outer loop
      vertex 54.106 -78.959 0
      vertex 60.392 -70.868 0
      vertex 64.936 -73.449 0
    endloop
  endfacet
  facet normal 0 0 -1
    outer loop
      vertex 82.902 -70.861 0
      vertex 67.571 -73.449 0
      vertex 60.392 -70.868 0
    endloop
  endfacet
  facet normal 0 0 1
    outer loop
      vertex 66.161 -48.086 10
      vertex 63.526 -48.086 10
      vertex 60.39 -64.709 10
    endloop
  endfacet
  facet normal 0 0 -1
    outer loop
      vertex 66.086 -66.351 0
      vertex 78.055 -66.372 0
      vertex 66.082 -69.236 0
    endloop
  endfacet
  facet normal 0 0 -1
    outer loop
      vertex 78.05 -69.256 0
      vertex 66.082 -69.236 0
      vertex 78.055 -66.372 0
    endloop
  endfacet
  facet normal 0 0 1
    outer loop
      vertex 63.526 -45.452 10
      vertex 55.194 -42.119 10
      vertex 63.526 -48.086 10
    endloop
  endfacet
  facet normal 0 0 1
    outer loop
      vertex 51.658 -57.336 10
      vertex 63.526 -48.086 10
      vertex 51.393 -45.031 10
    endloop
  endfacet
  facet normal 0 0 1
    outer loop
      vertex 60.39 -64.709 10
      vertex 63.526 -48.086 10
      vertex 51.658 -57.336 10
    endloop
  endfacet
  facet normal 0 0 1
    outer loop
      vertex 52.573 -44.023 10
      vertex 51.393 -45.031 10
      vertex 63.526 -48.086 10
    endloop
  endfacet
  facet normal -1 0.00139 0
    outer loop
      vertex 66.086 -66.351 0
      vertex 66.082 -69.236 0
      vertex 66.082 -69.236 10
    endloop
  endfacet
  facet normal -1 0.00139 0
    outer loop
      vertex 66.086 -66.351 0
      vertex 66.082 -69.236 10
      vertex 66.086 -66.351 10
    endloop
  endfacet
  facet normal 0 0 -1
    outer loop
      vertex 49.024 -59.97 0
      vertex 51.658 -59.97 0
      vertex 54.106 -78.959 0
    endloop
  endfacet
  facet normal 0 0 -1
    outer loop
      vertex 41.442 -64.56 0
      vertex 49.024 -59.97 0
      vertex 54.106 -78.959 0
    endloop
  endfacet
  facet normal -0.00031 1 0
    outer loop
      vertex 60.392 -70.868 10
      vertex 82.902 -70.861 10
      vertex 82.902 -70.861 0
    endloop
  endfacet
  facet normal 0 1 0
    outer loop
      vertex 72.41 -34 10
      vertex 72.41 -34 0
      vertex 71.188 -34 0
    endloop
  endfacet
  facet normal 0 1 0
    outer loop
      vertex 72.41 -34 10
      vertex 71.188 -34 0
      vertex 71.188 -34 10
    endloop
  endfacet
  facet normal 0 0 -1
    outer loop
      vertex 60.679 -37.586 0
      vertex 60.795 -35.839 0
      vertex 61.957 -35.462 0
    endloop
  endfacet
  facet normal 0 0 -1
    outer loop
      vertex 60.679 -37.586 0
      vertex 61.957 -35.462 0
      vertex 63.078 -36.807 0
    endloop
  endfacet
  facet normal 0 0 -1
    outer loop
      vertex 60.679 -37.586 0
      vertex 63.078 -36.807 0
      vertex 60.84 -39.243 0
    endloop
  endfacet
  facet normal 0 0 -1
    outer loop
      vertex 65.919 -34.511 0
      vertex 68.023 -35.823 0
      vertex 65.531 -36.218 0
    endloop
  endfacet
  facet normal 0 -1 0
    outer loop
      vertex 67.571 -73.449 10
      vertex 64.936 -73.449 10
      vertex 67.571 -73.449 0
    endloop
  endfacet
  facet normal 0 0 1
    outer loop
      vertex 60.84 -39.243 10
      vertex 63.526 -45.452 10
      vertex 63.921 -38.241 10
    endloop
  endfacet
  facet normal 0 0 1
    outer loop
      vertex 65.431 -37.879 10
      vertex 63.921 -38.241 10
      vertex 66.161 -45.452 10
    endloop
  endfacet
  facet normal 0 0 1
    outer loop
      vertex 56.519 -41.308 10
      vertex 63.526 -45.452 10
      vertex 59.405 -39.837 10
    endloop
  endfacet
  facet normal 0 0 1
    outer loop
      vertex 59.405 -39.837 10
      vertex 63.526 -45.452 10
      vertex 60.84 -39.243 10
    endloop
  endfacet
  facet normal 0 0 1
    outer loop
      vertex 66.161 -45.452 10
      vertex 63.921 -38.241 10
      vertex 63.526 -45.452 10
    endloop
  endfacet
  facet normal 0 0 1
    outer loop
      vertex 87.656 -37.953 10
      vertex 86.567 -37.399 10
      vertex 87.497 -39.697 10
    endloop
  endfacet
  facet normal 0 0 1
    outer loop
      vertex 86.567 -37.399 10
      vertex 85.25 -38.552 10
      vertex 87.497 -39.697 10
    endloop
  endfacet
  facet normal 0 0 1
    outer loop
      vertex 85.25 -38.552 10
      vertex 84.193 -39.837 10
      vertex 87.497 -39.697 10
    endloop
  endfacet
  facet normal 0 0 1
    outer loop
      vertex 87.08 -41.308 10
      vertex 87.497 -39.697 10
      vertex 84.193 -39.837 10
    endloop
  endfacet
  facet normal -1 0 0
    outer loop
      vertex 67.571 -73.449 10
      vertex 67.571 -73.449 0
      vertex 67.571 -76.084 0
    endloop
  endfacet
  facet normal -1 0 0
    outer loop
      vertex 67.571 -73.449 10
      vertex 67.571 -76.084 0
      vertex 67.571 -76.084 10
    endloop
  endfacet
  facet normal 0 0 -1
    outer loop
      vertex 63.526 -45.452 0
      vertex 63.526 -48.086 0
      vertex 55.194 -42.119 0
    endloop
  endfacet
  facet normal 0 0 -1
    outer loop
      vertex 52.573 -44.023 0
      vertex 55.194 -42.119 0
      vertex 63.526 -48.086 0
    endloop
  endfacet
  facet normal 0 0 -1
    outer loop
      vertex 63.526 -48.086 0
      vertex 51.658 -57.336 0
      vertex 51.393 -45.031 0
    endloop
  endfacet
  facet normal 0 0 1
    outer loop
      vertex 82.919 -37.586 10
      vertex 82.803 -35.839 10
      vertex 81.641 -35.462 10
    endloop
  endfacet
  facet normal 0 0 1
    outer loop
      vertex 81.641 -35.462 10
      vertex 80.52 -36.807 10
      vertex 82.919 -37.586 10
    endloop
  endfacet
  facet normal 0 1 0
    outer loop
      vertex 67.571 -76.084 10
      vertex 67.571 -76.084 0
      vertex 64.936 -76.084 0
    endloop
  endfacet
  facet normal 0 0 -1
    outer loop
      vertex 63.078 -36.807 0
      vertex 63.921 -38.241 0
      vertex 60.84 -39.243 0
    endloop
  endfacet
  facet normal 0 0 1
    outer loop
      vertex 55.942 -37.953 10
      vertex 56.101 -39.697 10
      vertex 57.031 -37.399 10
    endloop
  endfacet
  facet normal 0 0 1
    outer loop
      vertex 56.519 -41.308 10
      vertex 59.405 -39.837 10
      vertex 56.101 -39.697 10
    endloop
  endfacet
  facet normal 0 0 1
    outer loop
      vertex 58.349 -38.552 10
      vertex 56.101 -39.697 10
      vertex 59.405 -39.837 10
    endloop
  endfacet
  facet normal -0.00167 -1 0
    outer loop
      vertex 78.05 -69.256 10
      vertex 66.082 -69.236 10
      vertex 66.082 -69.236 0
    endloop
  endfacet
  facet normal -0.00167 -1 0
    outer loop
      vertex 78.05 -69.256 10
      vertex 66.082 -69.236 0
      vertex 78.05 -69.256 0
    endloop
  endfacet
  facet normal -0.91926 -0.39364 0
    outer loop
      vertex 47.517 -44.311 0
      vertex 48.206 -45.92 0
      vertex 48.206 -45.92 10
    endloop
  endfacet
  facet normal -0.91926 -0.39364 0
    outer loop
      vertex 47.517 -44.311 0
      vertex 48.206 -45.92 10
      vertex 47.517 -44.311 10
    endloop
  endfacet
  facet normal 0.65842 0.75265 0
    outer loop
      vertex 58.349 -38.552 10
      vertex 58.349 -38.552 0
      vertex 57.031 -37.399 10
    endloop
  endfacet
  facet normal 0 0 1
    outer loop
      vertex 43.313 -56.769 10
      vertex 49.024 -57.336 10
      vertex 43.907 -55.335 10
    endloop
  endfacet
  facet normal 0.97655 0.21527 0
    outer loop
      vertex 73.06 -35.626 0
      vertex 73.06 -35.626 10
      vertex 73.418 -37.25 0
    endloop
  endfacet
  facet normal 0.97655 0.21527 0
    outer loop
      vertex 73.418 -37.25 10
      vertex 73.418 -37.25 0
      vertex 73.06 -35.626 10
    endloop
  endfacet
  facet normal -0.84262 -0.53851 0
    outer loop
      vertex 48.206 -45.92 0
      vertex 49.102 -47.322 0
      vertex 49.102 -47.322 10
    endloop
  endfacet
  facet normal -0.84262 -0.53851 0
    outer loop
      vertex 48.206 -45.92 0
      vertex 49.102 -47.322 10
      vertex 48.206 -45.92 10
    endloop
  endfacet
  facet normal 0.77259 0.63491 0
    outer loop
      vertex 58.349 -38.552 10
      vertex 59.405 -39.837 10
      vertex 59.405 -39.837 0
    endloop
  endfacet
  facet normal 0.77259 0.63491 0
    outer loop
      vertex 58.349 -38.552 10
      vertex 59.405 -39.837 0
      vertex 58.349 -38.552 0
    endloop
  endfacet
  facet normal 0 0 1
    outer loop
      vertex 46.189 -51.124 10
      vertex 51.658 -57.336 10
      vertex 48.094 -48.503 10
    endloop
  endfacet
  facet normal 0.92856 0.37119 0
    outer loop
      vertex 73.06 -35.626 0
      vertex 72.41 -34 0
      vertex 72.41 -34 10
    endloop
  endfacet
  facet normal 0.92856 0.37119 0
    outer loop
      vertex 73.06 -35.626 0
      vertex 72.41 -34 10
      vertex 73.06 -35.626 10
    endloop
  endfacet
  facet normal -0.76062 0.6492 0
    outer loop
      vertex 49.102 -47.322 10
      vertex 49.102 -47.322 0
      vertex 48.094 -48.503 10
    endloop
  endfacet
  facet normal -0.99531 -0.09671 0
    outer loop
      vertex 60.679 -37.586 10
      vertex 60.679 -37.586 0
      vertex 60.84 -39.243 0
    endloop
  endfacet
  facet normal -0.99531 -0.09671 0
    outer loop
      vertex 60.679 -37.586 10
      vertex 60.84 -39.243 0
      vertex 60.84 -39.243 10
    endloop
  endfacet
  facet normal -0.92856 0.37119 0
    outer loop
      vertex 71.188 -34 0
      vertex 70.538 -35.626 0
      vertex 70.538 -35.626 10
    endloop
  endfacet
  facet normal -0.92856 0.37119 0
    outer loop
      vertex 71.188 -34 0
      vertex 70.538 -35.626 10
      vertex 71.188 -34 10
    endloop
  endfacet
  facet normal 0 0 1
    outer loop
      vertex 41.442 -64.56 10
      vertex 41.949 -61.361 10
      vertex 39.893 -63.952 10
    endloop
  endfacet
  facet normal 0 0 1
    outer loop
      vertex 38.389 -63.056 10
      vertex 39.893 -63.952 10
      vertex 38.581 -61.849 10
    endloop
  endfacet
  facet normal 0.00036 -1 0
    outer loop
      vertex 82.9 -64.701 10
      vertex 60.39 -64.709 10
      vertex 60.39 -64.709 0
    endloop
  endfacet
  facet normal 0.86207 0.50678 0
    outer loop
      vertex 63.078 -36.807 0
      vertex 63.078 -36.807 10
      vertex 63.921 -38.241 10
    endloop
  endfacet
  facet normal -0.97643 0.21585 0
    outer loop
      vertex 70.538 -35.626 0
      vertex 70.179 -37.25 0
      vertex 70.179 -37.25 10
    endloop
  endfacet
  facet normal -0.97643 0.21585 0
    outer loop
      vertex 70.538 -35.626 0
      vertex 70.179 -37.25 10
      vertex 70.538 -35.626 10
    endloop
  endfacet
  facet normal 1 0.00032 0
    outer loop
      vertex 60.392 -70.868 10
      vertex 60.392 -70.868 0
      vertex 60.39 -64.709 10
    endloop
  endfacet
  facet normal 1 0.00032 0
    outer loop
      vertex 60.39 -64.709 0
      vertex 60.39 -64.709 10
      vertex 60.392 -70.868 0
    endloop
  endfacet
  facet normal 0.76817 0.64024 0
    outer loop
      vertex 63.078 -36.807 0
      vertex 61.957 -35.462 0
      vertex 61.957 -35.462 10
    endloop
  endfacet
  facet normal 0.76817 0.64024 0
    outer loop
      vertex 63.078 -36.807 0
      vertex 61.957 -35.462 10
      vertex 63.078 -36.807 10
    endloop
  endfacet
  facet normal -0.07857 0.99691 0
    outer loop
      vertex 68.631 -37.372 0
      vertex 68.631 -37.372 10
      vertex 70.179 -37.25 0
    endloop
  endfacet
  facet normal -0.07857 0.99691 0
    outer loop
      vertex 70.179 -37.25 10
      vertex 70.179 -37.25 0
      vertex 68.631 -37.372 10
    endloop
  endfacet
  facet normal 0 -1 0
    outer loop
      vertex 51.658 -57.336 10
      vertex 49.024 -57.336 10
      vertex 51.658 -57.336 0
    endloop
  endfacet
  facet normal -0.3086 0.95119 0
    outer loop
      vertex 61.957 -35.462 0
      vertex 60.795 -35.839 0
      vertex 60.795 -35.839 10
    endloop
  endfacet
  facet normal -0.3086 0.95119 0
    outer loop
      vertex 61.957 -35.462 0
      vertex 60.795 -35.839 10
      vertex 61.957 -35.462 10
    endloop
  endfacet
  facet normal -1 0 0
    outer loop
      vertex 51.658 -57.336 10
      vertex 51.658 -57.336 0
      vertex 51.658 -59.97 0
    endloop
  endfacet
  facet normal -1 0 0
    outer loop
      vertex 51.658 -57.336 10
      vertex 51.658 -59.97 0
      vertex 51.658 -59.97 10
    endloop
  endfacet
  facet normal 0 0 1
    outer loop
      vertex 42.311 -59.85 10
      vertex 49.024 -59.97 10
      vertex 43.313 -56.769 10
    endloop
  endfacet
  facet normal 0 0 1
    outer loop
      vertex 49.024 -57.336 10
      vertex 43.313 -56.769 10
      vertex 49.024 -59.97 10
    endloop
  endfacet
  facet normal 0 0 1
    outer loop
      vertex 43.313 -56.769 10
      vertex 41.657 -56.608 10
      vertex 42.311 -59.85 10
    endloop
  endfacet
  facet normal -0.9978 0.06625 0
    outer loop
      vertex 60.795 -35.839 0
      vertex 60.679 -37.586 0
      vertex 60.679 -37.586 10
    endloop
  endfacet
  facet normal -0.9978 0.06625 0
    outer loop
      vertex 60.795 -35.839 0
      vertex 60.679 -37.586 10
      vertex 60.795 -35.839 10
    endloop
  endfacet
  facet normal 0.93086 0.36537 0
    outer loop
      vertex 68.631 -37.372 10
      vertex 68.631 -37.372 0
      vertex 68.023 -35.823 0
    endloop
  endfacet
  facet normal 0.93086 0.36537 0
    outer loop
      vertex 68.631 -37.372 10
      vertex 68.023 -35.823 0
      vertex 68.023 -35.823 10
    endloop
  endfacet
  facet normal 0 1 0
    outer loop
      vertex 51.658 -59.97 10
      vertex 51.658 -59.97 0
      vertex 49.024 -59.97 10
    endloop
  endfacet
  facet normal -1 0 0
    outer loop
      vertex 66.161 -45.452 0
      vertex 66.161 -48.086 0
      vertex 66.161 -48.086 10
    endloop
  endfacet
  facet normal -1 0 0
    outer loop
      vertex 66.161 -45.452 0
      vertex 66.161 -48.086 10
      vertex 66.161 -45.452 10
    endloop
  endfacet
  facet normal -0.97513 0.22165 0
    outer loop
      vertex 65.531 -36.218 10
      vertex 65.919 -34.511 10
      vertex 65.531 -36.218 0
    endloop
  endfacet
  facet normal -0.97513 0.22165 0
    outer loop
      vertex 65.919 -34.511 0
      vertex 65.531 -36.218 0
      vertex 65.919 -34.511 10
    endloop
  endfacet
  facet normal 0 0 1
    outer loop
      vertex 54.106 -78.959 10
      vertex 49.024 -59.97 10
      vertex 41.442 -64.56 10
    endloop
  endfacet
  facet normal -0.92388 0.38269 0
    outer loop
      vertex 43.313 -56.769 10
      vertex 43.907 -55.335 10
      vertex 43.313 -56.769 0
    endloop
  endfacet
  facet normal -0.92388 0.38269 0
    outer loop
      vertex 43.907 -55.335 0
      vertex 43.313 -56.769 0
      vertex 43.907 -55.335 10
    endloop
  endfacet
  facet normal 0 1 0
    outer loop
      vertex 66.161 -48.086 10
      vertex 66.161 -48.086 0
      vertex 63.526 -48.086 0
    endloop
  endfacet
  facet normal -0.99819 0.0601 0
    outer loop
      vertex 65.531 -36.218 0
      vertex 65.431 -37.879 0
      vertex 65.431 -37.879 10
    endloop
  endfacet
  facet normal -0.99819 0.0601 0
    outer loop
      vertex 65.531 -36.218 0
      vertex 65.431 -37.879 10
      vertex 65.531 -36.218 10
    endloop
  endfacet
  facet normal 0.09677 0.99531 0
    outer loop
      vertex 43.313 -56.769 10
      vertex 43.313 -56.769 0
      vertex 41.657 -56.608 0
    endloop
  endfacet
  facet normal 0.09677 0.99531 0
    outer loop
      vertex 43.313 -56.769 10
      vertex 41.657 -56.608 0
      vertex 41.657 -56.608 10
    endloop
  endfacet
  facet normal 0 0 1
    outer loop
      vertex 41.949 -61.361 10
      vertex 41.442 -64.56 10
      vertex 49.024 -59.97 10
    endloop
  endfacet
  facet normal 0 0 1
    outer loop
      vertex 40.288 -61.46 10
      vertex 39.893 -63.952 10
      vertex 41.949 -61.361 10
    endloop
  endfacet
  facet normal 0 0 1
    outer loop
      vertex 38.581 -61.849 10
      vertex 39.893 -63.952 10
      vertex 40.288 -61.46 10
    endloop
  endfacet
  facet normal 0 0 1
    outer loop
      vertex 42.311 -59.85 10
      vertex 41.949 -61.361 10
      vertex 49.024 -59.97 10
    endloop
  endfacet
  facet normal 0 -1 0
    outer loop
      vertex 66.161 -45.452 0
      vertex 66.161 -45.452 10
      vertex 63.526 -45.452 0
    endloop
  endfacet
  facet normal -0.06678 0.99777 0
    outer loop
      vertex 41.657 -56.608 0
      vertex 39.909 -56.725 0
      vertex 39.909 -56.725 10
    endloop
  endfacet
  facet normal -0.06678 0.99777 0
    outer loop
      vertex 41.657 -56.608 0
      vertex 39.909 -56.725 10
      vertex 41.657 -56.608 10
    endloop
  endfacet
  facet normal 0 0 1
    outer loop
      vertex 64.936 -76.084 10
      vertex 64.936 -73.449 10
      vertex 54.106 -78.959 10
    endloop
  endfacet
  facet normal -0.38247 0.92397 0
    outer loop
      vertex 60.84 -39.243 10
      vertex 60.84 -39.243 0
      vertex 59.405 -39.837 0
    endloop
  endfacet
  facet normal -0.38247 0.92397 0
    outer loop
      vertex 60.84 -39.243 10
      vertex 59.405 -39.837 0
      vertex 59.405 -39.837 10
    endloop
  endfacet
  facet normal -0.95111 0.30885 0
    outer loop
      vertex 39.909 -56.725 0
      vertex 39.532 -57.886 10
      vertex 39.909 -56.725 10
    endloop
  endfacet
  facet normal 0.85885 0.51223 0
    outer loop
      vertex 68.023 -35.823 0
      vertex 67.126 -34.319 0
      vertex 67.126 -34.319 10
    endloop
  endfacet
  facet normal 0.85885 0.51223 0
    outer loop
      vertex 68.023 -35.823 0
      vertex 67.126 -34.319 10
      vertex 68.023 -35.823 10
    endloop
  endfacet
  facet normal 0 0 1
    outer loop
      vertex 54.106 -78.959 10
      vertex 64.936 -73.449 10
      vertex 60.392 -70.868 10
    endloop
  endfacet
  facet normal 0 1 0
    outer loop
      vertex 63.526 -48.086 0
      vertex 63.526 -48.086 10
      vertex 66.161 -48.086 10
    endloop
  endfacet
  facet normal -0.75265 -0.65842 0
    outer loop
      vertex 41.469 -52.96 10
      vertex 41.469 -52.96 0
      vertex 42.622 -54.278 0
    endloop
  endfacet
  facet normal -0.75265 -0.65842 0
    outer loop
      vertex 41.469 -52.96 10
      vertex 42.622 -54.278 0
      vertex 42.622 -54.278 10
    endloop
  endfacet
  facet normal 1 0 0
    outer loop
      vertex 63.526 -45.452 10
      vertex 63.526 -48.086 10
      vertex 63.526 -48.086 0
    endloop
  endfacet
  facet normal 1 0 0
    outer loop
      vertex 63.526 -45.452 10
      vertex 63.526 -48.086 0
      vertex 63.526 -45.452 0
    endloop
  endfacet
  facet normal 0 0 1
    outer loop
      vertex 76.91 -79.008 10
      vertex 64.936 -76.084 10
      vertex 54.106 -78.959 10
    endloop
  endfacet
  facet normal 0 -1 0
    outer loop
      vertex 66.161 -45.452 10
      vertex 63.526 -45.452 10
      vertex 63.526 -45.452 0
    endloop
  endfacet
  facet normal 0 0 1
    outer loop
      vertex 60.392 -70.868 10
      vertex 51.658 -59.97 10
      vertex 54.106 -78.959 10
    endloop
  endfacet
  facet normal -0.77229 0.63526 0
    outer loop
      vertex 85.25 -38.552 10
      vertex 85.25 -38.552 0
      vertex 84.193 -39.837 10
    endloop
  endfacet
  facet normal 0.52234 0.85274 0
    outer loop
      vertex 88.404 -42.119 0
      vertex 87.08 -41.308 0
      vertex 87.08 -41.308 10
    endloop
  endfacet
  facet normal 0.52234 0.85274 0
    outer loop
      vertex 88.404 -42.119 0
      vertex 87.08 -41.308 10
      vertex 88.404 -42.119 10
    endloop
  endfacet
  facet normal 0.96809 -0.25059 0
    outer loop
      vertex 87.497 -39.697 0
      vertex 87.497 -39.697 10
      vertex 87.08 -41.308 10
    endloop
  endfacet
  facet normal 0.96809 -0.25059 0
    outer loop
      vertex 87.497 -39.697 0
      vertex 87.08 -41.308 10
      vertex 87.08 -41.308 0
    endloop
  endfacet
  facet normal 0.99587 -0.09079 0
    outer loop
      vertex 87.656 -37.953 0
      vertex 87.656 -37.953 10
      vertex 87.497 -39.697 10
    endloop
  endfacet
  facet normal 0.99587 -0.09079 0
    outer loop
      vertex 87.656 -37.953 0
      vertex 87.497 -39.697 10
      vertex 87.497 -39.697 0
    endloop
  endfacet
  facet normal 0.45342 0.8913 0
    outer loop
      vertex 87.656 -37.953 0
      vertex 86.567 -37.399 0
      vertex 86.567 -37.399 10
    endloop
  endfacet
  facet normal 0.45342 0.8913 0
    outer loop
      vertex 87.656 -37.953 0
      vertex 86.567 -37.399 10
      vertex 87.656 -37.953 10
    endloop
  endfacet
  facet normal -0.65871 0.7524 0
    outer loop
      vertex 86.567 -37.399 0
      vertex 85.25 -38.552 0
      vertex 85.25 -38.552 10
    endloop
  endfacet
  facet normal -0.65871 0.7524 0
    outer loop
      vertex 86.567 -37.399 0
      vertex 85.25 -38.552 10
      vertex 86.567 -37.399 10
    endloop
  endfacet
  facet normal 0.99531 -0.09671 0
    outer loop
      vertex 82.919 -37.586 10
      vertex 82.758 -39.243 10
      vertex 82.919 -37.586 0
    endloop
  endfacet
  facet normal 0.99531 -0.09671 0
    outer loop
      vertex 82.758 -39.243 0
      vertex 82.919 -37.586 0
      vertex 82.758 -39.243 10
    endloop
  endfacet
  facet normal 0.3086 0.95119 0
    outer loop
      vertex 82.803 -35.839 10
      vertex 82.803 -35.839 0
      vertex 81.641 -35.462 10
    endloop
  endfacet
endsolid stl_item0
